<?xml version="1.0" encoding="utf-8"?>
<!-- Generator: Adobe Illustrator 26.3.1, SVG Export Plug-In . SVG Version: 6.00 Build 0)  -->
<svg version="1.1" id="레이어_1" xmlns="http://www.w3.org/2000/svg" xmlns:xlink="http://www.w3.org/1999/xlink" x="0px"
	 y="0px" viewBox="0 0 133.83 133.83" style="enable-background:new 0 0 133.83 133.83;" xml:space="preserve">
<style type="text/css">
	.st0{fill-rule:evenodd;clip-rule:evenodd;fill:#FFFFFF;}
</style>
<path class="st0" d="M66.91,3.81c-35.73,0-64.7,28.97-64.7,64.71c0,28.59,18.54,52.84,44.25,61.4c3.24,0.59,4.42-1.4,4.42-3.12
	c0-1.54-0.06-5.61-0.09-11.01c-18,3.91-21.8-8.67-21.8-8.67c-2.94-7.47-7.18-9.47-7.18-9.47c-5.87-4.01,0.44-3.93,0.44-3.93
	c6.49,0.46,9.91,6.67,9.91,6.67c5.77,9.89,15.14,7.03,18.83,5.38c0.59-4.18,2.26-7.03,4.11-8.65c-14.37-1.63-29.47-7.18-29.47-31.98
	c0-7.06,2.52-12.84,6.66-17.36c-0.67-1.64-2.89-8.22,0.63-17.12c0,0,5.43-1.74,17.79,6.63c5.16-1.44,10.7-2.15,16.2-2.18
	c5.49,0.03,11.03,0.74,16.2,2.18c12.35-8.37,17.78-6.63,17.78-6.63c3.53,8.91,1.31,15.49,0.64,17.12c4.15,4.52,6.65,10.3,6.65,17.36
	c0,24.86-15.13,30.33-29.54,31.93c2.32,2,4.39,5.95,4.39,11.98c0,8.65-0.08,15.63-0.08,17.75c0,1.73,1.17,3.74,4.45,3.11
	c25.69-8.57,44.21-32.81,44.21-61.39C131.62,32.78,102.65,3.81,66.91,3.81z"/>
</svg>
