<?xml version="1.0" encoding="utf-8"?>
<!-- Generator: Adobe Illustrator 26.3.1, SVG Export Plug-In . SVG Version: 6.00 Build 0)  -->
<svg version="1.1" id="레이어_1" xmlns="http://www.w3.org/2000/svg" xmlns:xlink="http://www.w3.org/1999/xlink" x="0px"
	 y="0px" viewBox="0 0 360 70" style="enable-background:new 0 0 360 70;" xml:space="preserve">
<style type="text/css">
	.st0{fill:#FFFFFF;stroke:#1E1E1E;stroke-width:3;stroke-miterlimit:10;}
	.st1{fill:none;stroke:#2E2E2E;stroke-width:2;stroke-miterlimit:10;}
	.st2{fill:#FFFFFF;stroke:#2E2E2E;stroke-width:2;stroke-miterlimit:10;}
	.st3{fill:#2E2E2E;}
	.st4{enable-background:new    ;}
	.st5{fill:#1E1E1E;}
	.st6{fill:none;stroke:#1E1E1E;stroke-width:2;stroke-miterlimit:10;}
</style>
<g>
	<path class="st0" d="M346,66.5H15c-6.6,0-12-5.4-12-12v-39c0-6.6,5.4-12,12-12h331c6.6,0,12,5.4,12,12v39
		C358,61.1,352.6,66.5,346,66.5z"/>
	<g id="lock">
		<path class="st1" d="M39.46,19.23h-0.92c-2.79,0-5.08,2.28-5.08,5.08v12.92c0,2.79,2.28,5.08,5.08,5.08h0.92
			c2.79,0,5.08-2.28,5.08-5.08V24.31C44.54,21.52,42.25,19.23,39.46,19.23z"/>
		<path class="st2" d="M47.17,48.77H30.83c-2.11,0-3.83-1.72-3.83-3.83v-10.8c0-2.11,1.72-3.83,3.83-3.83h16.34
			c2.11,0,3.83,1.72,3.83,3.83v10.8C51,47.05,49.28,48.77,47.17,48.77z"/>
		<circle class="st3" cx="39" cy="38.92" r="2.46"/>
		<path class="st3" d="M39,44.15L39,44.15c-0.51,0-0.92-0.42-0.92-0.92v-3.69c0-0.51,0.42-0.92,0.92-0.92l0,0
			c0.51,0,0.92,0.42,0.92,0.92v3.69C39.92,43.74,39.51,44.15,39,44.15z"/>
	</g>
	<g class="st4">
		<path class="st5" d="M126.26,46.76V32.23h-5.63v-3.42c0.79,0.02,1.55-0.04,2.29-0.18c0.74-0.14,1.4-0.38,1.98-0.74
			c0.59-0.35,1.08-0.82,1.49-1.39s0.67-1.29,0.8-2.14h3.62v22.4H126.26z"/>
		<path class="st5" d="M149.37,52.55v-7.87h-0.06c-0.53,0.9-1.28,1.54-2.24,1.92s-1.95,0.58-2.98,0.58c-0.77,0-1.56-0.14-2.38-0.43
			s-1.57-0.77-2.26-1.44c-0.68-0.67-1.25-1.56-1.7-2.66c-0.45-1.1-0.67-2.45-0.67-4.05c0-1.13,0.15-2.23,0.45-3.3
			c0.3-1.07,0.76-2.01,1.38-2.83c0.62-0.82,1.39-1.48,2.32-1.97c0.93-0.49,2.02-0.74,3.28-0.74c1.02,0,1.99,0.2,2.9,0.59
			c0.91,0.4,1.62,1.05,2.13,1.97h0.06v-2.11h4.32v22.34H149.37z M141.82,40.44c0.13,0.63,0.35,1.2,0.66,1.7
			c0.31,0.5,0.71,0.9,1.22,1.2c0.5,0.3,1.12,0.45,1.87,0.45c0.75,0,1.37-0.14,1.87-0.43c0.5-0.29,0.91-0.67,1.22-1.15
			c0.31-0.48,0.53-1.04,0.67-1.66c0.14-0.63,0.21-1.29,0.21-1.97c0-0.64-0.07-1.28-0.21-1.92c-0.14-0.64-0.36-1.22-0.66-1.73
			s-0.7-0.93-1.2-1.25c-0.5-0.32-1.1-0.48-1.81-0.48c-0.75,0-1.38,0.15-1.89,0.45c-0.51,0.3-0.93,0.7-1.25,1.2
			c-0.32,0.5-0.55,1.07-0.69,1.7s-0.21,1.29-0.21,1.97C141.62,39.17,141.69,39.81,141.82,40.44z"/>
		<path class="st5" d="M157.24,29.4c0.34-1.1,0.85-2.06,1.54-2.88c0.68-0.82,1.54-1.46,2.58-1.92c1.03-0.46,2.22-0.69,3.57-0.69
			c1.02,0,2,0.16,2.93,0.48c0.93,0.32,1.74,0.78,2.45,1.38c0.7,0.6,1.26,1.33,1.68,2.21c0.42,0.88,0.62,1.86,0.62,2.94
			c0,1.13-0.18,2.1-0.54,2.91c-0.36,0.81-0.84,1.53-1.44,2.16c-0.6,0.63-1.27,1.2-2.03,1.71c-0.76,0.51-1.52,1.02-2.29,1.52
			c-0.77,0.5-1.52,1.04-2.24,1.62c-0.73,0.58-1.37,1.25-1.92,2.02h10.59v3.9h-16.45c0-1.3,0.19-2.43,0.56-3.39
			c0.37-0.96,0.88-1.82,1.52-2.58s1.39-1.46,2.26-2.1c0.86-0.64,1.78-1.29,2.74-1.95c0.49-0.34,1.01-0.69,1.57-1.04
			c0.55-0.35,1.06-0.74,1.52-1.17c0.46-0.43,0.84-0.91,1.15-1.44c0.31-0.53,0.46-1.14,0.46-1.82c0-1.09-0.32-1.94-0.94-2.54
			c-0.63-0.61-1.44-0.91-2.42-0.91c-0.66,0-1.22,0.16-1.68,0.46c-0.46,0.31-0.83,0.72-1.1,1.22c-0.28,0.5-0.48,1.06-0.59,1.66
			c-0.12,0.61-0.18,1.21-0.18,1.81h-4.35C156.75,31.69,156.9,30.5,157.24,29.4z"/>
		<path class="st5" d="M189.37,46.76l-2.94-11.1h-0.06l-2.82,11.1h-4.7l-5.25-16.54h4.8l3.04,11.23h0.06l2.75-11.23h4.42l2.82,11.2
			h0.06l3.04-11.2h4.67l-5.22,16.54H189.37z"/>
		<path class="st5" d="M208.31,33.42c0.55-0.04,1.07-0.17,1.55-0.37c0.48-0.2,0.88-0.5,1.18-0.88c0.31-0.38,0.46-0.9,0.46-1.54
			c0-0.96-0.32-1.7-0.96-2.21c-0.64-0.51-1.38-0.77-2.21-0.77c-1.15,0-2.02,0.38-2.61,1.14s-0.87,1.71-0.85,2.86h-4.32
			c0.04-1.15,0.25-2.2,0.62-3.15s0.9-1.77,1.57-2.45s1.48-1.21,2.42-1.58c0.94-0.37,1.98-0.56,3.14-0.56c0.9,0,1.79,0.13,2.69,0.4
			c0.9,0.27,1.7,0.67,2.42,1.2s1.3,1.18,1.74,1.95c0.45,0.77,0.67,1.65,0.67,2.66c0,1.09-0.26,2.05-0.78,2.88
			c-0.52,0.83-1.31,1.4-2.35,1.7v0.06c1.24,0.28,2.21,0.88,2.91,1.79c0.7,0.92,1.06,2.02,1.06,3.3c0,1.17-0.23,2.22-0.69,3.14
			c-0.46,0.92-1.07,1.69-1.84,2.3c-0.77,0.62-1.65,1.09-2.66,1.41c-1,0.32-2.05,0.48-3.14,0.48c-1.26,0-2.41-0.18-3.44-0.54
			s-1.92-0.89-2.64-1.58c-0.73-0.69-1.29-1.54-1.68-2.54c-0.4-1-0.58-2.15-0.56-3.46h4.32c0.02,0.6,0.12,1.17,0.29,1.71
			c0.17,0.54,0.42,1.01,0.74,1.41c0.32,0.39,0.72,0.71,1.2,0.94c0.48,0.24,1.05,0.35,1.71,0.35c1.02,0,1.89-0.31,2.59-0.94
			c0.7-0.63,1.06-1.49,1.06-2.58c0-0.85-0.17-1.5-0.5-1.95c-0.33-0.45-0.75-0.77-1.26-0.98c-0.51-0.2-1.07-0.32-1.68-0.35
			c-0.61-0.03-1.19-0.05-1.74-0.05v-3.2C207.23,33.46,207.76,33.46,208.31,33.42z"/>
		<path class="st5" d="M223.83,42.79c0.68,0.66,1.66,0.99,2.94,0.99c0.92,0,1.71-0.23,2.37-0.69c0.66-0.46,1.07-0.94,1.22-1.46h4
			c-0.64,1.98-1.62,3.4-2.94,4.26c-1.32,0.85-2.92,1.28-4.8,1.28c-1.3,0-2.47-0.21-3.52-0.62c-1.05-0.42-1.93-1.01-2.66-1.78
			c-0.73-0.77-1.29-1.68-1.68-2.75c-0.4-1.07-0.59-2.24-0.59-3.52c0-1.24,0.2-2.39,0.61-3.46c0.41-1.07,0.98-1.99,1.73-2.77
			c0.75-0.78,1.64-1.39,2.67-1.84c1.03-0.45,2.18-0.67,3.44-0.67c1.41,0,2.63,0.27,3.68,0.82c1.04,0.54,1.9,1.27,2.58,2.19
			c0.67,0.92,1.16,1.96,1.46,3.14c0.3,1.17,0.41,2.4,0.32,3.68h-11.94C222.78,41.07,223.15,42.13,223.83,42.79z M228.97,34.09
			c-0.54-0.6-1.37-0.9-2.48-0.9c-0.73,0-1.33,0.12-1.81,0.37c-0.48,0.25-0.86,0.55-1.15,0.91c-0.29,0.36-0.49,0.75-0.61,1.15
			c-0.12,0.41-0.19,0.77-0.21,1.09h7.39C229.89,35.56,229.51,34.69,228.97,34.09z"/>
		<path class="st5" d="M236.12,41.58v-4.16l9.73-13.06h4.06v13.47h2.98v3.74h-2.98v5.18h-4.32v-5.18H236.12z M245.5,30.06
			l-5.79,7.78h5.89v-7.78H245.5z"/>
		<path class="st5" d="M259.45,30.22v3.07h0.06c0.21-0.51,0.5-0.99,0.86-1.42c0.36-0.44,0.78-0.81,1.25-1.12
			c0.47-0.31,0.97-0.55,1.5-0.72c0.53-0.17,1.09-0.26,1.66-0.26c0.3,0,0.63,0.05,0.99,0.16v4.22c-0.21-0.04-0.47-0.08-0.77-0.11
			c-0.3-0.03-0.59-0.05-0.86-0.05c-0.83,0-1.54,0.14-2.11,0.42s-1.04,0.66-1.39,1.14c-0.35,0.48-0.6,1.04-0.75,1.68
			c-0.15,0.64-0.22,1.33-0.22,2.08v7.46h-4.54V30.22H259.45z"/>
		<path class="st5" d="M272.82,41.83v4.93h-5.02v-4.93H272.82z M271.42,39.91h-2.27l-1.22-9.86v-6.14h4.74v6.14L271.42,39.91z"/>
	</g>
	<line class="st6" x1="74" y1="14" x2="74" y2="57"/>
	<g>
		<path class="st2" d="M339.5,35c0,0-5.6,8.5-12.5,8.5S314.5,35,314.5,35s5.6-8.5,12.5-8.5S339.5,35,339.5,35z"/>
		<circle class="st2" cx="327" cy="35" r="4"/>
	</g>
</g>
</svg>
