<?xml version="1.0" encoding="utf-8"?>
<!-- Generator: Adobe Illustrator 26.3.1, SVG Export Plug-In . SVG Version: 6.00 Build 0)  -->
<svg version="1.1" id="레이어_1" xmlns="http://www.w3.org/2000/svg" xmlns:xlink="http://www.w3.org/1999/xlink" x="0px"
	 y="0px" viewBox="0 0 360 70" style="enable-background:new 0 0 360 70;" xml:space="preserve">
<style type="text/css">
	.st0{fill:#FFFFFF;stroke:#1E1E1E;stroke-width:3;stroke-miterlimit:10;}
	.st1{fill:none;stroke:#2E2E2E;stroke-width:2;stroke-miterlimit:10;}
	.st2{fill:#FFFFFF;stroke:#2E2E2E;stroke-width:2;stroke-miterlimit:10;}
	.st3{fill:#2E2E2E;}
	.st4{fill:#1E1E1E;}
	.st5{font-family:'HelveticaNeue-Bold';}
	.st6{font-size:32px;}
	.st7{fill:none;stroke:#1E1E1E;stroke-width:2;stroke-miterlimit:10;}
</style>
<g>
	<path class="st0" d="M346,66.5H15c-6.6,0-12-5.4-12-12v-39c0-6.6,5.4-12,12-12h331c6.6,0,12,5.4,12,12v39
		C358,61.1,352.6,66.5,346,66.5z"/>
	<g id="lock">
		<path class="st1" d="M39.46,19.23h-0.92c-2.79,0-5.08,2.28-5.08,5.08v12.92c0,2.79,2.28,5.08,5.08,5.08h0.92
			c2.79,0,5.08-2.28,5.08-5.08V24.31C44.54,21.52,42.25,19.23,39.46,19.23z"/>
		<path class="st2" d="M47.17,48.77H30.83c-2.11,0-3.83-1.72-3.83-3.83v-10.8c0-2.11,1.72-3.83,3.83-3.83h16.34
			c2.11,0,3.83,1.72,3.83,3.83v10.8C51,47.05,49.28,48.77,47.17,48.77z"/>
		<circle class="st3" cx="39" cy="38.92" r="2.46"/>
		<path class="st3" d="M39,44.15L39,44.15c-0.51,0-0.92-0.42-0.92-0.92v-3.69c0-0.51,0.42-0.92,0.92-0.92l0,0
			c0.51,0,0.92,0.42,0.92,0.92v3.69C39.92,43.74,39.51,44.15,39,44.15z"/>
	</g>
	<text transform="matrix(1 0 0 1 118.2637 46.7617)" class="st4 st5 st6">1q2w3e4r!</text>
	<line class="st7" x1="74" y1="14" x2="74" y2="57"/>
	<g>
		<path class="st2" d="M339.5,35c0,0-5.6,8.5-12.5,8.5S314.5,35,314.5,35s5.6-8.5,12.5-8.5S339.5,35,339.5,35z"/>
		<circle class="st2" cx="327" cy="35" r="4"/>
	</g>
</g>
</svg>
