<?xml version="1.0" encoding="utf-8"?>
<!-- Generator: Adobe Illustrator 26.3.1, SVG Export Plug-In . SVG Version: 6.00 Build 0)  -->
<svg version="1.1" id="레이어_1" xmlns="http://www.w3.org/2000/svg" xmlns:xlink="http://www.w3.org/1999/xlink" x="0px"
	 y="0px" viewBox="0 0 133.83 133.83" style="enable-background:new 0 0 133.83 133.83;" xml:space="preserve">
<style type="text/css">
	.st0{fill:#0093C9;}
</style>
<g>
	<g>
		<g>
			<path class="st0" d="M97.96,57.97c0-0.77-0.62-1.4-1.4-1.4H36.04c-0.77,0-1.39,0.63-1.39,1.4v1.27c0,0.77,0.62,1.4,1.39,1.4
				h60.53c0.77,0,1.4-0.63,1.4-1.4V57.97z"/>
		</g>
		<g>
			<path class="st0" d="M75.75,74.01l-9.57-10l-9.45,9.84l-9.44-9.84L35.84,75.95c-0.53,0.55-0.51,1.43,0.04,1.95l0.99,0.95
				c0.55,0.52,1.42,0.51,1.95-0.04l8.46-8.84l8.43,8.79c0.22,0.23,0.5,0.36,0.79,0.41c0.01,0,0.01,0,0.02,0
				c0.06,0,0.13,0.01,0.2,0.01c0.07,0,0.13-0.01,0.2-0.01c0.01,0,0.02,0,0.02,0c0.29-0.05,0.57-0.18,0.79-0.41l8.44-8.79l8.53,8.93
				c0.28,0.29,0.67,0.42,1.06,0.42c0.42,0,0.82-0.22,1.03-0.44l8.52-8.91l8.46,8.84c0.53,0.55,1.4,0.57,1.95,0.04l0.99-0.95
				c0.55-0.53,0.57-1.4,0.04-1.95L85.33,64.01L75.75,74.01z"/>
		</g>
		<g>
			<g>
				<g>
					<path class="st0" d="M46.44,53.2h1.38c0.77,0,1.4-0.62,1.4-1.39v-6.58c0-0.77-0.62-1.39-1.4-1.39h-1.38
						c-0.77,0-1.39,0.62-1.39,1.39v0.69v5.21v0.68C45.05,52.58,45.67,53.2,46.44,53.2z"/>
				</g>
				<g>
					<path class="st0" d="M68.38,45.23c0-0.77-0.62-1.39-1.39-1.39h-1.38c-0.77,0-1.39,0.62-1.39,1.39v6.58
						c0,0.77,0.62,1.39,1.39,1.39h1.38c0.77,0,1.39-0.62,1.39-1.39V45.23z"/>
				</g>
				<g>
					<path class="st0" d="M84.8,53.2h1.38c0.77,0,1.39-0.62,1.39-1.39v-6.58c0-0.77-0.62-1.39-1.39-1.39H84.8
						c-0.77,0-1.39,0.62-1.39,1.39v6.58C83.4,52.58,84.03,53.2,84.8,53.2z"/>
				</g>
			</g>
			<g>
				<path class="st0" d="M66.99,94.06c0.77,0,1.39-0.62,1.39-1.39V81.93c0-0.77-0.62-1.39-1.39-1.39h-1.38
					c-0.77,0-1.39,0.62-1.39,1.39v10.75c0,0.77,0.62,1.39,1.39,1.39H66.99z"/>
			</g>
			<g>
				<path class="st0" d="M86.17,94.06c0.77,0,1.39-0.62,1.39-1.39V81.93c0-0.77-0.62-1.39-1.39-1.39H84.8
					c-0.77,0-1.39,0.62-1.39,1.39v10.75c0,0.77,0.62,1.39,1.39,1.39H86.17z"/>
			</g>
		</g>
	</g>
	<path class="st0" d="M66.3,24.81c-23.57,0-42.75,19.18-42.75,42.76c0,23.57,19.18,42.75,42.75,42.75
		c23.58,0,42.76-19.18,42.76-42.75C109.06,44,89.88,24.81,66.3,24.81z M66.3,106.64c-21.54,0-39.06-17.52-39.06-39.06
		c0-21.55,17.52-39.07,39.06-39.07c21.54,0,39.07,17.53,39.07,39.07C105.37,89.12,87.85,106.64,66.3,106.64z"/>
	<path class="st0" d="M66.57,1.78c-36.05,0-65.38,29.33-65.38,65.38c0,36.05,29.33,65.38,65.38,65.38
		c36.05,0,65.38-29.33,65.38-65.38C131.95,31.11,102.62,1.78,66.57,1.78z M66.57,128.81c-33.99,0-61.64-27.65-61.64-61.65
		c0-33.99,27.65-61.65,61.64-61.65c33.99,0,61.65,27.66,61.65,61.65C128.22,101.16,100.56,128.81,66.57,128.81z"/>
	<g>
		<g>
			<path class="st0" d="M108.94,97.4c-0.18-0.11-0.21-0.22-0.1-0.39l0.54-0.84c0.12-0.18,0.23-0.2,0.4-0.09l0.79,0.52
				c0.18,0.11,0.21,0.23,0.09,0.4l-0.54,0.84c-0.11,0.18-0.22,0.19-0.4,0.08L108.94,97.4z"/>
		</g>
	</g>
	<g>
		<g>
			<path class="st0" d="M23.29,96.09c0.18-0.11,0.29-0.1,0.4,0.08L24.24,97c0.11,0.18,0.09,0.29-0.08,0.41l-0.8,0.52
				c-0.18,0.12-0.29,0.09-0.41-0.08L22.41,97c-0.11-0.18-0.08-0.28,0.09-0.4L23.29,96.09z"/>
		</g>
	</g>
	<g>
		<g>
			<path class="st0" d="M21.26,83.38c0.05,0.18-0.03,0.27-0.22,0.32L14,85.82c-0.2,0.06-0.31,0.02-0.37-0.18l-0.73-2.45
				c-0.61-2.03,0.06-3.01,1.01-3.29l3.97-1.19c0.95-0.28,2.04,0.16,2.65,2.19L21.26,83.38z M14.51,84.01l5.12-1.54l-0.36-1.2
				c-0.23-0.76-0.65-1.14-1.21-0.97l-3.43,1.03c-0.56,0.17-0.7,0.71-0.47,1.47L14.51,84.01z"/>
		</g>
	</g>
	<g>
		<g>
			<path class="st0" d="M10.89,73.41c-0.03-0.21,0.06-0.32,0.25-0.41l7.06-3.06c0.18-0.08,0.29-0.02,0.32,0.17l0.13,1.05
				c0.03,0.2-0.07,0.29-0.25,0.37l-1.37,0.58l0.26,2.16l1.47,0.23c0.19,0.04,0.31,0.11,0.33,0.31l0.12,0.94
				c0.03,0.21-0.07,0.29-0.27,0.25l-7.59-1.28c-0.2-0.03-0.31-0.12-0.33-0.32L10.89,73.41z M14.58,73.16
				c-0.46,0.21-1.92,0.57-2.07,0.6c0.15,0,1.64,0.02,2.15,0.1L16,74.09l-0.18-1.48L14.58,73.16z"/>
		</g>
	</g>
	<g>
		<g>
			<path class="st0" d="M18.46,67.15c-0.01,0.21-0.1,0.28-0.31,0.27l-7.34-0.29c-0.21-0.01-0.3-0.08-0.29-0.29l0.16-4
				c0-0.2,0.08-0.29,0.29-0.28l0.73,0.03c0.21,0.01,0.29,0.1,0.28,0.3l-0.11,2.7l1.89,0.08l0.1-2.5c0.01-0.21,0.08-0.3,0.29-0.3
				l0.7,0.03c0.2,0.01,0.28,0.1,0.27,0.31l-0.1,2.5l2.18,0.08l0.11-2.81c0.01-0.21,0.08-0.29,0.29-0.28l0.74,0.03
				c0.21,0.01,0.29,0.09,0.28,0.31L18.46,67.15z"/>
		</g>
	</g>
	<g>
		<g>
			<path class="st0" d="M18.01,58.18l0.5-2.56c0.04-0.19,0.12-0.27,0.33-0.23l0.72,0.14c0.21,0.04,0.27,0.15,0.23,0.34l-0.75,3.87
				c-0.03,0.17-0.15,0.22-0.34,0.18l-7.22-1.4c-0.2-0.04-0.29-0.13-0.25-0.33l0.2-1c0.04-0.21,0.14-0.26,0.35-0.22L18.01,58.18z"/>
		</g>
	</g>
	<g>
		<g>
			<path class="st0" d="M20.81,51.49c0.2,0.06,0.27,0.16,0.2,0.36l-0.31,0.97c-0.07,0.2-0.18,0.24-0.38,0.17l-6.99-2.27
				c-0.2-0.07-0.27-0.16-0.2-0.36l0.32-0.97c0.07-0.2,0.18-0.24,0.38-0.17L20.81,51.49z"/>
		</g>
	</g>
	<g>
		<g>
			<path class="st0" d="M25.05,42.15c0.18,0.09,0.23,0.2,0.13,0.38l-0.44,0.87c-0.09,0.19-0.21,0.21-0.39,0.12l-3.97-2.01
				c0.03,0.03,0.57,0.54,0.8,0.78l1.54,1.78c0.13,0.16,0.18,0.3,0.09,0.48l-0.38,0.74c-0.09,0.18-0.24,0.22-0.43,0.2l-2.54-0.18
				c-0.27-0.01-0.82-0.13-0.9-0.15l3.95,2c0.18,0.09,0.23,0.19,0.13,0.38l-0.42,0.83c-0.09,0.19-0.21,0.21-0.39,0.12l-6.57-3.33
				c-0.18-0.09-0.23-0.2-0.14-0.38l0.42-0.83c0.07-0.13,0.15-0.16,0.26-0.16l4.45,0.25c0.34,0.02,0.86,0.11,0.86,0.11
				s-0.34-0.34-0.59-0.63l-2.89-3.41c-0.07-0.09-0.07-0.18,0-0.3l0.44-0.87c0.09-0.19,0.21-0.21,0.39-0.12L25.05,42.15z"/>
		</g>
	</g>
	<g>
		<g>
			<path class="st0" d="M31.21,31.59c0.4,0.43,0.94,0.32,1.51-0.22c0.57-0.54,0.73-1.09,0.33-1.51l-3.81-4.05
				c-0.14-0.16-0.15-0.27,0-0.42l0.74-0.7c0.15-0.14,0.26-0.12,0.4,0.04l4,4.26c0.67,0.72,0.78,1.89-0.76,3.34
				c-1.54,1.45-2.71,1.28-3.38,0.56l-4-4.26c-0.14-0.15-0.15-0.28,0-0.42l0.74-0.7c0.14-0.14,0.27-0.12,0.41,0.03L31.21,31.59z"/>
		</g>
	</g>
	<g>
		<g>
			<path class="st0" d="M42.59,25.14c0.11,0.17,0.1,0.29-0.08,0.4l-0.78,0.5c-0.13,0.08-0.2,0.08-0.3,0.03l-4-2.02
				c-0.55-0.27-0.88-0.52-0.91-0.54l2.54,3.92c0.11,0.17,0.1,0.29-0.08,0.4l-0.78,0.5c-0.17,0.11-0.29,0.07-0.39-0.09l-4-6.19
				c-0.11-0.17-0.1-0.29,0.08-0.4l0.78-0.5c0.11-0.07,0.18-0.08,0.27-0.03l4.17,2.11c0.35,0.18,0.78,0.47,0.78,0.47l-2.54-3.93
				c-0.11-0.17-0.1-0.28,0.08-0.4l0.78-0.5c0.18-0.11,0.29-0.07,0.39,0.09L42.59,25.14z"/>
		</g>
	</g>
	<g>
		<g>
			<path class="st0" d="M46.87,23.04c0.09,0.19,0.06,0.31-0.13,0.39l-0.92,0.43c-0.19,0.09-0.29,0.03-0.38-0.16l-3.09-6.67
				c-0.09-0.19-0.07-0.3,0.13-0.39l0.92-0.43c0.19-0.09,0.29-0.03,0.38,0.16L46.87,23.04z"/>
		</g>
	</g>
	<g>
		<g>
			<path class="st0" d="M51.69,21.52c-0.2,0.06-0.32,0-0.43-0.17l-4.29-6.39c-0.11-0.16-0.08-0.28,0.12-0.34l1.06-0.33
				c0.19-0.06,0.3,0.02,0.41,0.18l2.27,3.46c0.36,0.55,0.78,1.54,0.78,1.54s-0.18-1.06-0.2-1.7l-0.11-4.15
				c0-0.2,0.05-0.32,0.25-0.38l0.97-0.31c0.19-0.06,0.29,0.02,0.29,0.22l0.13,7.69c0,0.21-0.07,0.33-0.27,0.39L51.69,21.52z"/>
		</g>
	</g>
	<g>
		<g>
			<path class="st0" d="M57.81,19.94c-0.21,0.03-0.29-0.05-0.32-0.26l-1.05-7.28c-0.03-0.21,0.03-0.31,0.24-0.34l3.97-0.57
				c0.2-0.03,0.3,0.03,0.33,0.24l0.11,0.73c0.03,0.21-0.05,0.3-0.25,0.33l-2.68,0.38l0.27,1.88l2.48-0.36
				c0.21-0.03,0.31,0.03,0.34,0.23l0.1,0.7c0.03,0.2-0.05,0.29-0.26,0.32l-2.48,0.36l0.31,2.16l2.79-0.4
				c0.21-0.03,0.3,0.03,0.33,0.24l0.1,0.73c0.03,0.21-0.04,0.3-0.25,0.33L57.81,19.94z"/>
		</g>
	</g>
	<g>
		<g>
			<path class="st0" d="M66.58,16.14l-0.06,2.73c0,0.21-0.08,0.3-0.29,0.3l-1.02-0.02c-0.21,0-0.28-0.1-0.27-0.31l0.17-7.35
				c0.01-0.21,0.08-0.3,0.29-0.3l2.46,0.06c2.12,0.05,2.81,0.99,2.79,1.97l-0.03,1.11c-0.02,0.69-0.38,1.34-1.33,1.65l1.2,2.98
				c0.08,0.19-0.07,0.3-0.28,0.3l-1.03-0.02c-0.16,0-0.21-0.12-0.28-0.31l-1.08-2.75l-0.07,0L66.58,16.14z M66.66,12.52l-0.05,2.31
				l1.16,0.03c0.78,0.02,1.27-0.26,1.28-0.85l0.02-0.55c0.01-0.58-0.46-0.89-1.24-0.91L66.66,12.52z"/>
		</g>
	</g>
	<g>
		<g>
			<path class="st0" d="M78.16,14.51c0.11-0.56-0.21-0.9-0.95-1.05c-0.74-0.15-1.17,0.04-1.29,0.6l-0.04,0.17
				c-0.08,0.4,0.18,0.61,0.35,0.71l1.86,1.11c0.72,0.43,1.2,1.07,1.02,1.93l-0.18,0.88c-0.19,0.97-1.04,1.74-3.11,1.33
				c-2.04-0.41-2.56-1.46-2.37-2.42l0.14-0.72c0.04-0.21,0.14-0.28,0.33-0.24L74.9,17c0.21,0.04,0.26,0.15,0.21,0.35l-0.11,0.52
				c-0.11,0.56,0.27,0.91,1.05,1.07c0.77,0.15,1.27-0.02,1.38-0.59l0.08-0.36c0.09-0.47-0.33-0.75-0.81-1.05l-1.64-1.02
				c-0.51-0.32-0.89-1-0.75-1.69l0.13-0.68c0.19-0.96,0.97-1.75,2.98-1.35c2.01,0.4,2.47,1.44,2.28,2.4l-0.09,0.47
				c-0.04,0.19-0.14,0.27-0.34,0.23l-0.97-0.19c-0.2-0.04-0.24-0.14-0.21-0.34L78.16,14.51z"/>
		</g>
	</g>
	<g>
		<g>
			<path class="st0" d="M82.9,21.76c-0.07,0.2-0.16,0.27-0.36,0.2l-0.96-0.33c-0.2-0.07-0.24-0.18-0.17-0.38l2.4-6.95
				c0.07-0.2,0.17-0.26,0.37-0.19l0.96,0.33c0.2,0.07,0.23,0.18,0.17,0.38L82.9,21.76z"/>
		</g>
	</g>
	<g>
		<g>
			<path class="st0" d="M93.3,18.02c0.18,0.09,0.23,0.19,0.14,0.38l-0.33,0.66c-0.09,0.19-0.21,0.22-0.39,0.13l-1.49-0.73l-2.79,5.7
				c-0.09,0.19-0.2,0.24-0.39,0.15l-0.91-0.45c-0.19-0.09-0.22-0.21-0.13-0.4l2.79-5.7l-1.49-0.73c-0.19-0.09-0.22-0.2-0.13-0.39
				l0.33-0.66c0.09-0.19,0.2-0.22,0.38-0.12L93.3,18.02z"/>
		</g>
	</g>
	<g>
		<g>
			<path class="st0" d="M96.77,23.7c-0.05,0.19-0.18,0.58-0.19,0.62c0.04-0.03,0.34-0.29,0.53-0.39l2.54-1.48
				c0.15-0.09,0.29-0.16,0.45-0.04l0.82,0.58c0.16,0.11,0.19,0.26,0.01,0.36l-4.46,2.52l-1.57,2.25c-0.12,0.16-0.23,0.2-0.4,0.08
				l-0.84-0.58c-0.17-0.12-0.18-0.25-0.07-0.41l1.47-2.1l0.94-5.22c0.03-0.19,0.17-0.24,0.33-0.12l0.95,0.66
				c0.16,0.11,0.16,0.25,0.12,0.44L96.77,23.7z"/>
		</g>
	</g>
	<g>
		<g>
			<path class="st0" d="M108.07,39.63c-0.79,0.59-1.91,0.64-3.17-1.06c-1.27-1.7-0.9-2.76-0.12-3.35l3.47-2.59
				c0.79-0.59,1.91-0.64,3.18,1.06c1.27,1.7,0.9,2.76,0.11,3.35l-0.45,0.33c-0.17,0.13-0.28,0.12-0.4-0.04l-0.58-0.78
				c-0.12-0.17-0.11-0.28,0.06-0.41l0.22-0.17c0.47-0.35,0.46-0.85-0.01-1.48c-0.47-0.63-0.94-0.77-1.41-0.42l-3.02,2.26
				c-0.47,0.35-0.47,0.85,0.01,1.47c0.47,0.63,0.95,0.78,1.42,0.43l0.36-0.27c0.17-0.12,0.28-0.11,0.4,0.06l0.58,0.78
				c0.12,0.16,0.1,0.27-0.07,0.39L108.07,39.63z"/>
		</g>
	</g>
	<g>
		<g>
			<path class="st0" d="M113.47,40.15c0.88-0.45,2.03-0.21,2.99,1.68c0.96,1.89,0.46,2.96-0.42,3.4l-3.87,1.96
				c-0.88,0.44-2.03,0.21-2.99-1.68c-0.96-1.89-0.46-2.96,0.42-3.4L113.47,40.15z M115.08,43.94c0.52-0.27,0.57-0.83,0.21-1.53
				c-0.35-0.7-0.83-0.98-1.35-0.72l-3.37,1.7c-0.52,0.26-0.57,0.81-0.22,1.51c0.36,0.7,0.83,1,1.36,0.73L115.08,43.94z"/>
		</g>
	</g>
	<g>
		<g>
			<path class="st0" d="M113.35,51.92l0.79,2.49c0.06,0.19,0.02,0.3-0.18,0.36l-0.71,0.23c-0.2,0.06-0.3,0-0.36-0.19l-1.2-3.76
				c-0.05-0.17,0.03-0.27,0.21-0.33l7.01-2.22c0.2-0.07,0.31-0.03,0.38,0.17l0.31,0.97c0.06,0.2,0,0.3-0.21,0.36L113.35,51.92z"/>
		</g>
	</g>
	<g>
		<g>
			<path class="st0" d="M115.09,58.95l0.42,2.58c0.03,0.2-0.02,0.3-0.23,0.33l-0.73,0.12c-0.21,0.04-0.3-0.05-0.33-0.24l-0.63-3.89
				c-0.03-0.17,0.07-0.26,0.26-0.29l7.26-1.17c0.21-0.03,0.31,0.02,0.35,0.23l0.16,1.01c0.04,0.21-0.05,0.29-0.25,0.33L115.09,58.95
				z"/>
		</g>
	</g>
	<g>
		<g>
			<path class="st0" d="M114.45,64.87c0-0.21,0.09-0.28,0.3-0.28l7.35-0.07c0.21,0,0.3,0.07,0.3,0.28l0.04,4
				c0,0.2-0.07,0.29-0.28,0.29l-0.74,0.01c-0.21,0-0.29-0.09-0.29-0.29l-0.03-2.7l-1.9,0.02l0.03,2.5c0,0.21-0.07,0.31-0.28,0.31
				l-0.7,0.01c-0.2,0-0.29-0.09-0.29-0.3l-0.03-2.5l-2.17,0.02l0.03,2.82c0,0.21-0.07,0.29-0.28,0.29l-0.74,0.01
				c-0.21,0-0.29-0.08-0.29-0.29L114.45,64.87z"/>
		</g>
	</g>
	<g>
		<g>
			<path class="st0" d="M117.63,77.71c-0.03,0.2-0.12,0.28-0.32,0.25l-2.06-0.33c-0.97-0.15-1.79-0.92-1.46-3.02
				c0.33-2.09,1.34-2.57,2.31-2.42l4.28,0.68c0.97,0.15,1.79,0.92,1.46,3.01c-0.33,2.1-1.34,2.57-2.31,2.42l-0.46-0.07
				c-0.2-0.03-0.28-0.12-0.25-0.31l0.15-0.96c0.04-0.21,0.14-0.27,0.34-0.24l0.19,0.03c0.58,0.09,0.93-0.27,1.05-1.04
				c0.12-0.78-0.1-1.21-0.68-1.31l-3.72-0.59c-0.57-0.09-0.93,0.26-1.05,1.03c-0.12,0.77,0.11,1.23,0.67,1.32l0.77,0.12l0.18-1.13
				c0.03-0.21,0.12-0.29,0.32-0.26l0.74,0.12c0.21,0.03,0.26,0.14,0.23,0.34L117.63,77.71z"/>
		</g>
	</g>
	<g>
		<g>
			<path class="st0" d="M112.64,80.39c0.07-0.2,0.18-0.24,0.38-0.17l6.97,2.31c0.2,0.07,0.26,0.16,0.2,0.36l-1.26,3.8
				c-0.06,0.19-0.16,0.26-0.36,0.19l-0.7-0.23c-0.2-0.06-0.25-0.18-0.18-0.37l0.85-2.57l-1.8-0.59l-0.79,2.38
				c-0.07,0.2-0.16,0.27-0.36,0.2l-0.67-0.22c-0.19-0.06-0.24-0.18-0.17-0.38l0.79-2.38l-2.06-0.68l-0.89,2.68
				c-0.07,0.2-0.15,0.25-0.36,0.19l-0.7-0.23c-0.2-0.07-0.25-0.17-0.19-0.37L112.64,80.39z"/>
		</g>
	</g>
	<g>
		<g>
			<path class="st0" d="M35.56,106.89c0.35-0.43,0.23-0.88-0.34-1.34c-0.58-0.47-1.04-0.5-1.39-0.07l-0.11,0.13
				c-0.25,0.31-0.12,0.61-0.02,0.78l1.1,1.81c0.43,0.71,0.54,1.48,0,2.14l-0.56,0.68c-0.61,0.75-1.71,1.02-3.3-0.28
				c-1.58-1.29-1.56-2.44-0.95-3.18l0.46-0.56c0.13-0.16,0.25-0.18,0.4-0.06l0.75,0.61c0.16,0.13,0.15,0.25,0.02,0.41l-0.32,0.4
				c-0.35,0.44-0.19,0.92,0.42,1.41c0.6,0.49,1.11,0.56,1.46,0.13l0.23-0.28c0.3-0.37,0.06-0.8-0.22-1.28l-0.96-1.64
				c-0.3-0.51-0.31-1.27,0.13-1.81l0.43-0.52c0.61-0.75,1.64-1.08,3.2,0.19c1.56,1.27,1.48,2.38,0.87,3.12l-0.3,0.36
				c-0.12,0.15-0.24,0.17-0.4,0.04l-0.75-0.61c-0.15-0.12-0.15-0.24-0.02-0.39L35.56,106.89z"/>
		</g>
	</g>
	<g>
		<g>
			<path class="st0" d="M38.17,115.3c-0.11,0.18-0.21,0.22-0.39,0.11l-0.85-0.52c-0.17-0.11-0.19-0.22-0.08-0.4l3.74-6.16
				c0.11-0.18,0.21-0.22,0.39-0.11l0.85,0.52c0.17,0.11,0.19,0.22,0.08,0.4L38.17,115.3z"/>
		</g>
	</g>
	<g>
		<g>
			<path class="st0" d="M47.29,119.67c-0.08,0.18-0.17,0.24-0.37,0.16l-0.83-0.35c-0.14-0.06-0.18-0.11-0.19-0.23l-0.57-4.36
				c-0.09-0.6-0.07-1-0.07-1.03l-1.78,4.22c-0.08,0.18-0.17,0.24-0.36,0.16l-0.83-0.35c-0.19-0.08-0.22-0.19-0.14-0.37l2.81-6.66
				c0.08-0.18,0.18-0.24,0.36-0.16l0.84,0.35c0.12,0.05,0.17,0.11,0.18,0.2l0.59,4.54c0.05,0.38,0.05,0.89,0.05,0.89l1.78-4.23
				c0.08-0.18,0.17-0.24,0.37-0.16l0.84,0.35c0.19,0.08,0.22,0.19,0.14,0.37L47.29,119.67z"/>
		</g>
	</g>
	<g>
		<g>
			<path class="st0" d="M57.21,120.76c-0.21,0.94-1.01,1.69-3.04,1.23c-2.02-0.46-2.43-1.47-2.22-2.41l0.93-4.14
				c0.21-0.94,1.01-1.69,3.04-1.23c2.02,0.45,2.43,1.47,2.22,2.41l-0.12,0.54c-0.05,0.2-0.13,0.26-0.32,0.22l-0.93-0.21
				c-0.2-0.04-0.26-0.14-0.22-0.34l0.06-0.27c0.13-0.56-0.2-0.93-0.95-1.09c-0.75-0.17-1.19,0.03-1.32,0.58l-0.81,3.6
				c-0.13,0.56,0.19,0.93,0.94,1.09c0.75,0.17,1.2-0.02,1.33-0.58l0.1-0.42c0.04-0.2,0.14-0.26,0.34-0.22l0.93,0.21
				c0.19,0.04,0.24,0.14,0.2,0.34L57.21,120.76z"/>
		</g>
	</g>
	<g>
		<g>
			<path class="st0" d="M61.39,123.06c-0.21-0.01-0.27-0.11-0.26-0.31l0.41-7.19c0.01-0.21,0.09-0.29,0.29-0.28l3.92,0.23
				c0.19,0.01,0.28,0.08,0.27,0.29l-0.04,0.72c-0.01,0.21-0.11,0.28-0.3,0.27l-2.65-0.16l-0.11,1.86l2.45,0.14
				c0.21,0.01,0.29,0.08,0.28,0.29l-0.04,0.69c-0.01,0.2-0.11,0.27-0.32,0.26l-2.45-0.14l-0.12,2.13l2.76,0.16
				c0.21,0.01,0.29,0.08,0.27,0.29l-0.04,0.72c-0.01,0.2-0.1,0.28-0.3,0.27L61.39,123.06z"/>
		</g>
	</g>
	<g>
		<g>
			<path class="st0" d="M76.48,114.36c0.12-0.05,0.27-0.04,0.32,0.22l1.21,6.2l1.48-0.29c0.21-0.04,0.3,0.01,0.33,0.21l0.14,0.71
				c0.04,0.2-0.02,0.3-0.23,0.34l-4.53,0.89c-0.19,0.04-0.3-0.02-0.34-0.22l-0.14-0.71c-0.04-0.2,0.04-0.29,0.23-0.33l1.53-0.3
				l-0.97-4.95l-1.47,0.57c-0.17,0.07-0.3,0.01-0.34-0.18l-0.15-0.74c-0.04-0.19,0.06-0.29,0.23-0.36L76.48,114.36z"/>
		</g>
	</g>
	<g>
		<g>
			<path class="st0" d="M88.32,117.01c0.33,0.87,0.12,1.94-1.75,2.66c-1.86,0.71-2.71,0.04-3.04-0.83l-0.11-0.28
				c-0.07-0.19-0.03-0.29,0.16-0.37l0.89-0.34c0.18-0.07,0.28-0.02,0.35,0.17l0.03,0.08c0.19,0.5,0.57,0.68,1.27,0.41
				c0.7-0.27,0.87-0.65,0.68-1.16l-0.5-1.29c-0.19,0.29-0.54,0.57-1.07,0.77c-1.63,0.62-2.57,0-2.91-0.9l-0.39-1.04
				c-0.34-0.9-0.1-1.96,1.78-2.68c1.86-0.71,2.74-0.08,3.09,0.82L88.32,117.01z M85.44,113.79c-0.2-0.53-0.6-0.68-1.29-0.42
				c-0.71,0.27-0.92,0.66-0.71,1.19l0.24,0.62c0.21,0.53,0.61,0.68,1.32,0.4c0.69-0.26,0.89-0.63,0.69-1.16L85.44,113.79z"/>
		</g>
	</g>
	<g>
		<g>
			<path class="st0" d="M93.34,107.43c0.17-0.1,0.28-0.09,0.38,0.09l0.36,0.6c0.04,0.07,0.06,0.14,0.07,0.23l0.82,6.83
				c0.02,0.17,0.01,0.34-0.17,0.44l-0.97,0.57c-0.18,0.11-0.29,0.07-0.32-0.16l-0.79-6.76l-3.03,1.79c-0.17,0.1-0.29,0.08-0.4-0.1
				l-0.37-0.62c-0.1-0.18-0.06-0.28,0.11-0.38L93.34,107.43z"/>
		</g>
	</g>
	<g>
		<g>
			<path class="st0" d="M100.08,102.48c0.15-0.12,0.27-0.13,0.39,0.03l0.45,0.54c0.05,0.06,0.08,0.13,0.1,0.21l1.88,6.62
				c0.05,0.17,0.06,0.33-0.09,0.46l-0.87,0.72c-0.16,0.13-0.28,0.11-0.34-0.11l-1.84-6.55l-2.71,2.25
				c-0.15,0.12-0.28,0.12-0.41-0.04l-0.46-0.56c-0.13-0.16-0.1-0.27,0.04-0.4L100.08,102.48z"/>
		</g>
	</g>
</g>
</svg>
