<?xml version="1.0" encoding="utf-8"?>
<!-- Generator: Adobe Illustrator 26.3.1, SVG Export Plug-In . SVG Version: 6.00 Build 0)  -->
<svg version="1.1" id="레이어_1" xmlns="http://www.w3.org/2000/svg" xmlns:xlink="http://www.w3.org/1999/xlink" x="0px"
	 y="0px" viewBox="0 0 327.98 32.26" style="enable-background:new 0 0 327.98 32.26;" xml:space="preserve">
<style type="text/css">
	.st0{fill:#FF8A33;}
	.st1{fill:#FF3E3E;}
</style>
<g>
	<g>
		<path class="st0" d="M12.35,3.38l6.01,17.68h0.07l5.69-17.68h7.96v25.7h-5.29V10.87h-0.07l-6.3,18.22h-4.36l-6.3-18.04H9.69v18.04
			H4.4V3.38H12.35z"/>
		<path class="st0" d="M36.8,10.99c0.58-1.64,1.4-3.08,2.48-4.3c1.08-1.22,2.41-2.18,3.98-2.88c1.57-0.7,3.34-1.04,5.31-1.04
			c1.99,0,3.77,0.35,5.33,1.04c1.56,0.7,2.88,1.66,3.96,2.88s1.91,2.66,2.48,4.3c0.58,1.64,0.86,3.43,0.86,5.35
			c0,1.87-0.29,3.62-0.86,5.24c-0.58,1.62-1.4,3.03-2.48,4.23c-1.08,1.2-2.4,2.14-3.96,2.83c-1.56,0.68-3.34,1.03-5.33,1.03
			c-1.97,0-3.74-0.34-5.31-1.03c-1.57-0.68-2.9-1.62-3.98-2.83c-1.08-1.2-1.91-2.61-2.48-4.23s-0.86-3.37-0.86-5.24
			C35.93,14.42,36.22,12.64,36.8,10.99z M41.96,19.49c0.25,1.02,0.65,1.94,1.21,2.75c0.55,0.82,1.27,1.47,2.16,1.96
			c0.89,0.49,1.97,0.74,3.24,0.74c1.27,0,2.35-0.25,3.24-0.74c0.89-0.49,1.61-1.15,2.16-1.96c0.55-0.82,0.95-1.73,1.21-2.75
			c0.25-1.02,0.38-2.07,0.38-3.15c0-1.13-0.13-2.22-0.38-3.28c-0.25-1.06-0.65-2-1.21-2.83c-0.55-0.83-1.27-1.49-2.16-1.98
			c-0.89-0.49-1.97-0.74-3.24-0.74c-1.27,0-2.35,0.25-3.24,0.74c-0.89,0.49-1.61,1.15-2.16,1.98c-0.55,0.83-0.95,1.77-1.21,2.83
			c-0.25,1.06-0.38,2.15-0.38,3.28C41.59,17.42,41.71,18.47,41.96,19.49z"/>
		<path class="st0" d="M70.67,3.38L81.4,20.62h0.07V3.38h5.29v25.7h-5.65L70.42,11.87h-0.07v17.21h-5.29V3.38H70.67z"/>
		<path class="st0" d="M97.38,3.38v10.66l10.04-10.66h7.06l-10.04,10.15l11.02,15.55h-7.09l-7.74-11.56l-3.24,3.28v8.28h-5.65V3.38
			H97.38z"/>
		<path class="st0" d="M136.95,3.38v4.75h-13.57v5.51h12.46v4.39h-12.46v6.3h13.86v4.75h-19.51V3.38H136.95z"/>
		<path class="st0" d="M138.28,3.38h6.34l6.01,10.15l5.98-10.15h6.3l-9.54,15.84v9.86h-5.65V19.07L138.28,3.38z"/>
		<path class="st0" d="M176.66,3.38c1.61,0,2.98,0.23,4.1,0.7c1.13,0.47,2.05,1.09,2.75,1.85c0.71,0.77,1.22,1.64,1.55,2.63
			c0.32,0.98,0.49,2,0.49,3.06c0,1.03-0.16,2.05-0.49,3.04c-0.32,1-0.84,1.88-1.55,2.65c-0.71,0.77-1.63,1.39-2.75,1.85
			c-1.13,0.47-2.5,0.7-4.1,0.7h-5.94v9.22h-5.65V3.38H176.66z M175.11,15.47c0.65,0,1.27-0.05,1.87-0.14
			c0.6-0.1,1.13-0.28,1.58-0.56c0.46-0.28,0.82-0.67,1.1-1.17s0.41-1.16,0.41-1.98c0-0.82-0.14-1.48-0.41-1.98s-0.64-0.89-1.1-1.17
			c-0.46-0.28-0.98-0.46-1.58-0.56c-0.6-0.1-1.22-0.14-1.87-0.14h-4.39v7.7H175.11z"/>
		<path class="st0" d="M188.82,10.99c0.58-1.64,1.4-3.08,2.48-4.3s2.41-2.18,3.98-2.88c1.57-0.7,3.34-1.04,5.31-1.04
			c1.99,0,3.77,0.35,5.33,1.04c1.56,0.7,2.88,1.66,3.96,2.88s1.91,2.66,2.48,4.3c0.58,1.64,0.86,3.43,0.86,5.35
			c0,1.87-0.29,3.62-0.86,5.24c-0.58,1.62-1.4,3.03-2.48,4.23c-1.08,1.2-2.4,2.14-3.96,2.83s-3.34,1.03-5.33,1.03
			c-1.97,0-3.74-0.34-5.31-1.03c-1.57-0.68-2.9-1.62-3.98-2.83c-1.08-1.2-1.91-2.61-2.48-4.23s-0.86-3.37-0.86-5.24
			C187.96,14.42,188.25,12.64,188.82,10.99z M193.99,19.49c0.25,1.02,0.65,1.94,1.21,2.75c0.55,0.82,1.27,1.47,2.16,1.96
			s1.97,0.74,3.24,0.74c1.27,0,2.35-0.25,3.24-0.74c0.89-0.49,1.61-1.15,2.16-1.96c0.55-0.82,0.95-1.73,1.21-2.75
			c0.25-1.02,0.38-2.07,0.38-3.15c0-1.13-0.13-2.22-0.38-3.28c-0.25-1.06-0.65-2-1.21-2.83c-0.55-0.83-1.27-1.49-2.16-1.98
			c-0.89-0.49-1.97-0.74-3.24-0.74c-1.27,0-2.35,0.25-3.24,0.74c-0.89,0.49-1.61,1.15-2.16,1.98c-0.55,0.83-0.95,1.77-1.21,2.83
			c-0.25,1.06-0.38,2.15-0.38,3.28C193.61,17.42,193.74,18.47,193.99,19.49z"/>
		<path class="st0" d="M215.1,3.38h6.55l5.04,8.21l5.22-8.21h6.19l-8.24,12.28l8.96,13.43h-6.73l-5.62-8.89l-5.72,8.89h-6.34
			l8.96-13.46L215.1,3.38z"/>
		<path class="st1" d="M256.76,3.38v20.95h12.53v4.75H251.1V3.38H256.76z"/>
		<path class="st1" d="M278.1,3.38v25.7h-5.65V3.38H278.1z"/>
		<path class="st1" d="M288.65,29.08l-8.32-25.7h5.8l5.72,18.07h0.07l5.8-18.07h5.83l-8.53,25.7H288.65z"/>
		<path class="st1" d="M324.97,3.38v4.75H311.4v5.51h12.46v4.39H311.4v6.3h13.86v4.75h-19.51V3.38H324.97z"/>
	</g>
</g>
</svg>
